<?xml version="1.0" encoding="UTF-8" standalone="no"?><svg xmlns="http://www.w3.org/2000/svg" xmlns:xlink="http://www.w3.org/1999/xlink" contentScriptType="application/ecmascript" contentStyleType="text/css" height="477px" preserveAspectRatio="none" style="width:504px;height:477px;background:#FFFFFF;" version="1.1" viewBox="0 0 504 477" width="504px" zoomAndPan="magnify"><defs><filter height="300%" id="f1m7ll2a72ulq9" width="300%" x="-1" y="-1"><feGaussianBlur result="blurOut" stdDeviation="2.0"/><feColorMatrix in="blurOut" result="blurOut2" type="matrix" values="0 0 0 0 0 0 0 0 0 0 0 0 0 0 0 0 0 0 .4 0"/><feOffset dx="4.0" dy="4.0" in="blurOut2" result="blurOut3"/><feBlend in="SourceGraphic" in2="blurOut3" mode="normal"/></filter></defs><g><line style="stroke:#A80036;stroke-width:1.0;stroke-dasharray:5.0,5.0;" x1="177.5" x2="177.5" y1="40.2969" y2="433.8906"/><line style="stroke:#A80036;stroke-width:1.0;stroke-dasharray:5.0,5.0;" x1="326" x2="326" y1="40.2969" y2="433.8906"/><rect fill="#FEFECE" filter="url(#f1m7ll2a72ulq9)" height="30.2969" style="stroke:#A80036;stroke-width:1.5;" width="53" x="149.5" y="5"/><text fill="#000000" font-family="sans-serif" font-size="14" lengthAdjust="spacing" textLength="39" x="156.5" y="24.9951">Client</text><rect fill="#FEFECE" filter="url(#f1m7ll2a72ulq9)" height="30.2969" style="stroke:#A80036;stroke-width:1.5;" width="53" x="149.5" y="432.8906"/><text fill="#000000" font-family="sans-serif" font-size="14" lengthAdjust="spacing" textLength="39" x="156.5" y="452.8857">Client</text><rect fill="#FEFECE" filter="url(#f1m7ll2a72ulq9)" height="30.2969" style="stroke:#A80036;stroke-width:1.5;" width="58" x="295" y="5"/><text fill="#000000" font-family="sans-serif" font-size="14" lengthAdjust="spacing" textLength="44" x="302" y="24.9951">Server</text><rect fill="#FEFECE" filter="url(#f1m7ll2a72ulq9)" height="30.2969" style="stroke:#A80036;stroke-width:1.5;" width="58" x="295" y="432.8906"/><text fill="#000000" font-family="sans-serif" font-size="14" lengthAdjust="spacing" textLength="44" x="302" y="452.8857">Server</text><polygon fill="#A80036" points="314,67.4297,324,71.4297,314,75.4297,318,71.4297" style="stroke:#A80036;stroke-width:1.0;"/><line style="stroke:#A80036;stroke-width:1.0;" x1="178" x2="320" y1="71.4297" y2="71.4297"/><text fill="#000000" font-family="sans-serif" font-size="13" lengthAdjust="spacing" textLength="67" x="185" y="66.3638">Username</text><line style="stroke:#A80036;stroke-width:1.0;" x1="326" x2="368" y1="115.6953" y2="115.6953"/><line style="stroke:#A80036;stroke-width:1.0;" x1="368" x2="368" y1="115.6953" y2="128.6953"/><line style="stroke:#A80036;stroke-width:1.0;" x1="327" x2="368" y1="128.6953" y2="128.6953"/><polygon fill="#A80036" points="337,124.6953,327,128.6953,337,132.6953,333,128.6953" style="stroke:#A80036;stroke-width:1.0;"/><text fill="#000000" font-family="sans-serif" font-size="13" lengthAdjust="spacing" textLength="157" x="333" y="95.4966">Find existing session key</text><text fill="#000000" font-family="sans-serif" font-size="13" lengthAdjust="spacing" textLength="130" x="333" y="110.6294">associated with user</text><polygon fill="#A80036" points="189,153.8281,179,157.8281,189,161.8281,185,157.8281" style="stroke:#A80036;stroke-width:1.0;"/><line style="stroke:#A80036;stroke-width:1.0;" x1="183" x2="325" y1="157.8281" y2="157.8281"/><text fill="#000000" font-family="sans-serif" font-size="13" lengthAdjust="spacing" textLength="75" x="195" y="152.7622">Server data</text><line style="stroke:#A80036;stroke-width:1.0;" x1="136" x2="178" y1="186.9609" y2="186.9609"/><line style="stroke:#A80036;stroke-width:1.0;" x1="136" x2="136" y1="186.9609" y2="199.9609"/><line style="stroke:#A80036;stroke-width:1.0;" x1="136" x2="177" y1="199.9609" y2="199.9609"/><polygon fill="#A80036" points="169,195.9609,179,199.9609,169,203.9609,173,199.9609" style="stroke:#A80036;stroke-width:1.0;"/><text fill="#000000" font-family="sans-serif" font-size="13" lengthAdjust="spacing" textLength="131" x="47" y="181.895">Generate client data</text><line style="stroke:#A80036;stroke-width:1.0;" x1="136" x2="178" y1="229.0938" y2="229.0938"/><line style="stroke:#A80036;stroke-width:1.0;" x1="136" x2="136" y1="229.0938" y2="242.0938"/><line style="stroke:#A80036;stroke-width:1.0;" x1="136" x2="177" y1="242.0938" y2="242.0938"/><polygon fill="#A80036" points="169,238.0938,179,242.0938,169,246.0938,173,242.0938" style="stroke:#A80036;stroke-width:1.0;"/><text fill="#000000" font-family="sans-serif" font-size="13" lengthAdjust="spacing" textLength="164" x="14" y="224.0278">Calculate reconnect proof</text><polygon fill="#A80036" points="314,282.3594,324,286.3594,314,290.3594,318,286.3594" style="stroke:#A80036;stroke-width:1.0;"/><line style="stroke:#A80036;stroke-width:1.0;" x1="178" x2="320" y1="286.3594" y2="286.3594"/><text fill="#000000" font-family="sans-serif" font-size="13" lengthAdjust="spacing" textLength="73" x="185" y="266.1606">Client data,</text><text fill="#000000" font-family="sans-serif" font-size="13" lengthAdjust="spacing" textLength="101" x="185" y="281.2935">reconnect proof</text><line style="stroke:#A80036;stroke-width:1.0;" x1="326" x2="368" y1="315.4922" y2="315.4922"/><line style="stroke:#A80036;stroke-width:1.0;" x1="368" x2="368" y1="315.4922" y2="328.4922"/><line style="stroke:#A80036;stroke-width:1.0;" x1="327" x2="368" y1="328.4922" y2="328.4922"/><polygon fill="#A80036" points="337,324.4922,327,328.4922,337,332.4922,333,328.4922" style="stroke:#A80036;stroke-width:1.0;"/><text fill="#000000" font-family="sans-serif" font-size="13" lengthAdjust="spacing" textLength="164" x="333" y="310.4263">Calculate reconnect proof</text><polygon fill="#A80036" points="189,353.625,179,357.625,189,361.625,185,357.625" style="stroke:#A80036;stroke-width:1.0;"/><line style="stroke:#A80036;stroke-width:1.0;" x1="183" x2="325" y1="357.625" y2="357.625"/><text fill="#000000" font-family="sans-serif" font-size="13" lengthAdjust="spacing" textLength="124" x="195" y="352.5591">Send 'Reconect OK'</text><polygon fill="#A80036" points="314,382.7578,324,386.7578,314,390.7578,318,386.7578" style="stroke:#A80036;stroke-width:1.0;"/><line style="stroke:#A80036;stroke-width:1.0;" x1="178" x2="320" y1="386.7578" y2="386.7578"/><text fill="#000000" font-family="sans-serif" font-size="13" lengthAdjust="spacing" textLength="101" x="185" y="381.6919">'Send Realmlist'</text><polygon fill="#A80036" points="189,411.8906,179,415.8906,189,419.8906,185,415.8906" style="stroke:#A80036;stroke-width:1.0;"/><line style="stroke:#A80036;stroke-width:1.0;" x1="183" x2="325" y1="415.8906" y2="415.8906"/><text fill="#000000" font-family="sans-serif" font-size="13" lengthAdjust="spacing" textLength="58" x="195" y="410.8247">Realmlist</text><!--MD5=[9e3893dd5abf99221b04e760ad9651f9]
@startuml
Client -> Server: Username

Server -> Server: Find existing session key\nassociated with user

Server -> Client: Server data

Client <- Client: Generate client data
Client <- Client: Calculate reconnect proof

Client -> Server: Client data,\nreconnect proof

Server -> Server: Calculate reconnect proof

Server -> Client: Send 'Reconect OK'

Client -> Server: 'Send Realmlist'
Server -> Client: Realmlist
@enduml

PlantUML version 1.2021.7(Sun May 23 14:40:07 CEST 2021)
(GPL source distribution)
Java Runtime: OpenJDK Runtime Environment
JVM: OpenJDK 64-Bit Server VM
Default Encoding: UTF-8
Language: en
Country: US
--></g></svg>